# xmcd
#
# Track frame offsets: 
#        150
#        18135
#        29568
#        44100
#        55773
#        69053
#        83953
#        97723
#        114945
#        130395
#        142433
#        151230
#        167168
#        177275
#        195143
#        211268
#        225103
#        238743
#        253203
#        267558
#
# Disc length: 3750 seconds
#
# Revision: 7
# Processed by: cddbd v1.5.2PL0 Copyright (c) Steve Scherf et al.
# Submitted via: ExactAudioCopy v0.99pb5
#
DISCID=0d0ea414
DTITLE=Tom Astor - Meilensteine
DYEAR=1995
DGENRE=Country
TTITLE0=Tom Astor and Waylon Jennings - I've Always Been Crazy (Ich Spie
TTITLE0=l Mit Dem Teufel)
TTITLE1=Tom Astor and Wiellie Nelson - Two Stories Wide
TTITLE2=Tom Astor and Don Williams - I'm Getting Good At Missing You
TTITLE3=Tom Astor and Emmylou Harris - The Last Time (Geh Nicht Allein)
TTITLE4=Tom Astor and The Bellamy Brothers - Redneck Riviera
TTITLE5=Tom Astor and Pam Gadd - Send A Message To My Heart (Fax Mir Bit
TTITLE5=te Jeden Tag)
TTITLE6=Tom Astor and Moe Bandy - Till I'm Too Old To Die Young (Lass Mi
TTITLE6=ch So Jung Nicht Geh'n)
TTITLE7=Tom Astor and Lynn Anderson - Under The Boardwalk
TTITLE8=Tom Astor and David Allan Goe - Then I Find You (Dann Fand Ich S
TTITLE8=ie)
TTITLE9=Tom Astor and Bobba Bare - 500 Miles Away From Home (500 Meilen 
TTITLE9=Von Zuhaus)
TTITLE10=Tom Astor and Buck Owens - Sam's Place
TTITLE11=Tom Astor and The Mccarters - Letter From Home (Ein Brief Von Z
TTITLE11=uhaus)
TTITLE12=Tom Astor and Boxcar Wiellie - Big Freight Train Carry Me Home
TTITLE13=Tom Astor and Joe Diffie - It Is Cold In Here (Es Ist Viel Zu K
TTITLE13=alt)
TTITLE14=Tom Astor and Wild Rose - Till A Tear Becomes A Rose (Wir Sind 
TTITLE14=Stark)
TTITLE15=Tom Astor and Tommy Overstreet - Heaven Is My Woman's Love
TTITLE16=Tom Astor and Ed Bruce - You Just Can't See Him From The Road (
TTITLE16=Alte Cowboys Sterben Nie)
TTITLE17=Tom Astor and Dick Gurless - A Tombstone Every Mile (Ein Grabst
TTITLE17=ein Überall)
TTITLE18=Tom Astor and Dave Dudley - Im Stau
TTITLE19=Tom Astor and The Stars Grand Old Opery - Take Me Home Country 
TTITLE19=Roads
EXTD=ID3G:   2
EXTT0=
EXTT1=
EXTT2=
EXTT3=
EXTT4=
EXTT5=
EXTT6=
EXTT7=
EXTT8=
EXTT9=
EXTT10=
EXTT11=
EXTT12=
EXTT13=
EXTT14=
EXTT15=
EXTT16=
EXTT17=
EXTT18=
EXTT19=
PLAYORDER=
